<?xml version="1.0" standalone="no"?>
<!DOCTYPE svg PUBLIC "-//W3C//DTD SVG 20010904//EN"
 "http://www.w3.org/TR/2001/REC-SVG-20010904/DTD/svg10.dtd">
<svg version="1.0" xmlns="http://www.w3.org/2000/svg"
 width="1069.000000pt" height="1069.000000pt" viewBox="0 0 1069.000000 1069.000000"
 preserveAspectRatio="xMidYMid meet">
<metadata>
Created by potrace 1.11, written by Peter Selinger 2001-2013
</metadata>
<g transform="translate(0.000000,1069.000000) scale(0.100000,-0.100000)"
fill="#000000" stroke="none">
<path d="M8595 9834 c-37 -7 -549 -58 -935 -94 -223 -21 -1198 -119 -1380
-140 -52 -5 -219 -22 -370 -36 -235 -21 -1141 -112 -1425 -143 -49 -5 -139
-15 -200 -21 -60 -5 -297 -28 -525 -51 -228 -22 -586 -58 -795 -79 -209 -22
-429 -44 -490 -51 -235 -24 -217 -19 -248 -69 -119 -190 -333 -631 -452 -930
-64 -160 -176 -479 -190 -540 -2 -8 -21 -78 -43 -155 -189 -668 -267 -1454
-211 -2130 24 -299 86 -674 155 -948 38 -150 123 -420 137 -434 6 -6 62 -16
122 -22 61 -6 286 -29 500 -51 215 -21 442 -44 505 -50 166 -14 278 -26 610
-60 442 -45 1169 -118 1305 -130 119 -11 225 -21 400 -40 50 -6 180 -19 290
-30 110 -11 351 -36 535 -55 184 -18 416 -41 515 -49 99 -9 218 -20 265 -26
47 -5 132 -14 190 -20 58 -6 256 -26 440 -45 354 -36 844 -84 1120 -110 91 -9
203 -20 250 -25 100 -11 232 -25 465 -49 100 -11 174 -15 180 -9 6 5 -19 63
-68 156 -371 702 -595 1284 -786 2047 -32 130 -77 337 -91 425 -102 642 -124
894 -124 1415 0 393 11 582 54 919 18 141 66 442 89 561 50 256 200 787 282
998 27 69 26 77 -18 76 -21 -1 -47 -3 -58 -5z"/>
<path d="M2731 3210 l-82 -90 38 0 c33 0 49 10 126 76 48 42 87 82 87 90 0 10
-13 14 -43 14 -42 0 -46 -3 -126 -90z"/>
<path d="M2618 3102 l-168 -2 0 -350 0 -350 250 0 250 0 0 35 0 35 -210 0
-210 0 0 115 0 115 168 2 167 3 0 35 0 35 -167 -2 -168 -2 0 130 0 129 200 0
200 0 0 34 0 34 -72 4 c-40 2 -148 2 -240 0z"/>
<path d="M3380 3095 c-113 -32 -221 -131 -255 -236 -24 -70 -17 -188 14 -251
35 -74 95 -134 168 -170 55 -27 79 -33 154 -36 75 -4 101 0 171 21 46 15 100
38 121 52 l38 26 -3 122 -3 122 -167 3 -168 2 0 -40 0 -40 130 0 131 0 -3 -67
-3 -68 -55 -30 c-51 -28 -63 -30 -155 -30 -83 0 -108 4 -146 22 -209 104 -217
399 -12 499 51 25 69 29 148 29 78 0 97 -4 145 -27 30 -15 63 -33 72 -40 15
-11 22 -9 44 13 l26 26 -43 32 c-94 69 -240 96 -349 66z"/>
<path d="M4000 2755 l0 -355 35 0 35 0 0 355 0 355 -35 0 -35 0 0 -355z"/>
<path d="M4523 3092 c-177 -63 -282 -247 -238 -417 19 -73 75 -158 133 -202
52 -40 156 -73 227 -73 69 0 171 32 223 70 123 89 176 259 126 401 -25 71
-117 169 -192 206 -74 36 -201 43 -279 15z m243 -84 c62 -22 135 -95 155 -154
17 -50 17 -148 0 -198 -31 -90 -146 -174 -252 -183 -91 -9 -161 18 -236 92
-68 66 -83 103 -83 195 0 67 27 131 78 183 89 92 205 115 338 65z"/>
<path d="M5220 2760 l0 -350 25 0 c14 0 28 -1 33 -2 4 -2 9 122 12 275 l5 278
60 -72 c75 -90 190 -231 274 -335 109 -135 118 -144 148 -144 l28 0 -3 350 -3
350 -34 0 -35 0 0 -282 0 -282 -37 44 c-21 24 -60 72 -88 106 -278 346 -337
414 -361 414 l-24 0 0 -350z"/>
<path d="M1727 3093 c-4 -3 -7 -161 -7 -350 l0 -343 40 0 40 0 0 110 0 110
105 0 c58 0 108 1 112 3 4 1 46 -48 93 -110 85 -112 85 -112 128 -113 50 0 55
-12 -53 135 -43 60 -75 110 -70 112 108 36 168 201 116 318 -29 65 -46 83
-106 111 -46 22 -63 24 -221 24 -94 0 -174 -3 -177 -7z m372 -88 c58 -34 76
-68 76 -140 0 -77 -20 -109 -85 -142 -39 -20 -59 -23 -167 -23 l-123 0 0 166
0 166 133 -4 c109 -3 138 -7 166 -23z"/>
<path d="M8048 2094 c-10 -9 -10 -566 -1 -932 l6 -272 237 0 c267 0 306 6 435
69 92 45 164 112 230 211 65 99 87 167 93 289 6 126 -6 188 -59 297 -51 107
-163 225 -259 271 -121 58 -162 65 -430 70 -135 3 -248 1 -252 -3z m517 -198
c75 -20 114 -43 174 -104 61 -63 106 -150 122 -236 30 -162 -72 -360 -222
-433 -87 -42 -149 -53 -289 -53 l-120 0 0 420 0 420 143 0 c86 0 162 -5 192
-14z"/>
<path d="M9312 1498 l3 -603 93 -3 92 -3 -2 603 -3 603 -93 3 -92 3 2 -603z"/>
<path d="M9820 1495 l0 -605 433 2 432 3 0 90 0 90 -342 3 -343 2 0 155 0 155
280 0 280 0 0 90 0 90 -280 0 -280 0 0 175 0 175 328 2 327 3 3 88 3 87 -421
0 -420 0 0 -605z"/>
<path d="M4932 1958 c-77 -129 -217 -359 -319 -525 l-50 -82 -23 42 c-13 23
-60 101 -105 172 -44 72 -103 166 -130 210 -26 44 -79 131 -117 193 l-70 112
-69 0 -69 0 0 -600 0 -600 90 0 90 0 0 392 0 392 76 -124 c42 -69 107 -174
144 -235 146 -240 182 -295 191 -290 5 3 41 61 81 128 39 67 94 158 122 202
28 44 81 132 118 195 l68 115 1 -55 c0 -30 1 -102 3 -160 1 -58 3 -207 4 -332
l2 -228 90 0 90 0 0 605 0 605 -70 0 -69 0 -79 -132z"/>
<path d="M5845 2038 c-148 -332 -220 -492 -290 -648 -188 -418 -225 -502 -225
-506 0 -3 46 -3 101 -2 l102 3 46 107 c25 58 54 127 64 152 l19 46 274 0 c154
0 274 -4 274 -9 0 -5 30 -75 67 -155 l68 -146 94 0 94 0 -6 29 c-4 16 -38 98
-78 183 -39 84 -93 203 -119 263 -46 105 -80 179 -258 567 l-77 168 -63 0 -63
0 -24 -52z m215 -521 c33 -76 60 -140 60 -143 0 -2 -83 -4 -185 -4 -102 0
-185 2 -185 4 0 6 115 274 150 351 l32 70 34 -70 c18 -38 61 -132 94 -208z"/>
<path d="M6722 1488 l3 -603 85 0 85 0 5 425 5 425 85 -103 c47 -57 108 -132
135 -167 28 -34 77 -95 110 -134 81 -97 205 -248 290 -353 l70 -87 68 0 67 -1
0 600 0 600 -95 0 -95 0 0 -382 c0 -211 0 -398 0 -417 0 -50 16 -67 -280 298
-30 37 -106 130 -169 207 -62 76 -141 174 -175 216 l-61 77 -68 0 -67 1 2
-602z"/>
<path d="M823 2064 c-3 -9 -3 -202 0 -428 l6 -411 -36 40 c-19 22 -53 63 -75
90 -22 28 -73 91 -114 140 -145 176 -427 520 -447 548 -19 25 -26 27 -89 27
l-68 0 0 -600 0 -600 90 0 90 0 2 425 3 424 70 -85 c39 -48 90 -112 114 -143
25 -31 72 -88 105 -127 34 -39 106 -127 161 -194 55 -68 133 -163 173 -212
l72 -88 65 0 65 0 0 605 0 605 -90 0 c-75 0 -92 -3 -97 -16z"/>
<path d="M1734 2061 c-109 -27 -179 -66 -265 -148 -92 -88 -132 -147 -166
-245 -22 -63 -26 -90 -26 -193 0 -102 4 -131 25 -191 66 -188 240 -344 444
-399 79 -22 231 -22 314 0 89 23 211 88 275 147 67 61 138 165 167 243 26 73
36 254 19 336 -22 102 -76 195 -165 284 -92 92 -166 136 -282 165 -97 25 -241
25 -340 1z m278 -172 c124 -27 243 -124 301 -246 29 -63 32 -76 32 -168 0 -92
-3 -105 -32 -165 -66 -135 -184 -224 -332 -251 -236 -42 -469 112 -517 342
-27 129 12 254 111 358 113 119 269 165 437 130z"/>
<path d="M2790 1918 c0 -90 3 -362 7 -605 l6 -443 89 0 88 0 0 190 0 190 163
0 162 -1 135 -184 135 -184 113 -1 c61 0 112 3 112 6 0 3 -64 92 -143 197 -79
106 -146 197 -150 203 -4 7 13 24 42 44 86 54 142 151 161 276 30 195 -68 385
-230 444 -62 23 -78 24 -377 28 l-313 3 0 -163z m637 -47 c62 -36 96 -105 96
-195 0 -117 -35 -177 -126 -217 -47 -21 -70 -24 -234 -27 l-183 -4 0 237 0
237 203 -4 c191 -3 204 -4 244 -27z"/>
</g>
</svg>
